<mxfile host="app.diagrams.net" agent="Mozilla/5.0 (Windows NT 10.0; Win64; x64) AppleWebKit/537.36 (KHTML, like Gecko) Chrome/139.0.0.0 Safari/537.36" version="28.1.2">
  <diagram name="P치gina-1" id="tk96rbI1kVLSa1lMCtRb">
    <mxGraphModel dx="1226" dy="1876" grid="1" gridSize="10" guides="1" tooltips="1" connect="1" arrows="1" fold="1" page="1" pageScale="1" pageWidth="827" pageHeight="1169" math="0" shadow="0">
      <root>
        <mxCell id="0" />
        <mxCell id="1" parent="0" />
        <mxCell id="kf2svgYHk70GY_-qb0b_-48" style="edgeStyle=orthogonalEdgeStyle;rounded=0;orthogonalLoop=1;jettySize=auto;html=1;entryX=0;entryY=0.5;entryDx=0;entryDy=0;" edge="1" parent="1" source="kf2svgYHk70GY_-qb0b_-1" target="kf2svgYHk70GY_-qb0b_-3">
          <mxGeometry relative="1" as="geometry" />
        </mxCell>
        <mxCell id="kf2svgYHk70GY_-qb0b_-49" style="edgeStyle=orthogonalEdgeStyle;rounded=0;orthogonalLoop=1;jettySize=auto;html=1;entryX=0;entryY=0.5;entryDx=0;entryDy=0;" edge="1" parent="1" source="kf2svgYHk70GY_-qb0b_-1" target="kf2svgYHk70GY_-qb0b_-5">
          <mxGeometry relative="1" as="geometry" />
        </mxCell>
        <mxCell id="kf2svgYHk70GY_-qb0b_-50" style="edgeStyle=orthogonalEdgeStyle;rounded=0;orthogonalLoop=1;jettySize=auto;html=1;entryX=0;entryY=0.5;entryDx=0;entryDy=0;" edge="1" parent="1" source="kf2svgYHk70GY_-qb0b_-1" target="kf2svgYHk70GY_-qb0b_-6">
          <mxGeometry relative="1" as="geometry" />
        </mxCell>
        <mxCell id="kf2svgYHk70GY_-qb0b_-53" style="edgeStyle=orthogonalEdgeStyle;rounded=0;orthogonalLoop=1;jettySize=auto;html=1;entryX=0;entryY=0.5;entryDx=0;entryDy=0;" edge="1" parent="1" source="kf2svgYHk70GY_-qb0b_-1" target="kf2svgYHk70GY_-qb0b_-52">
          <mxGeometry relative="1" as="geometry" />
        </mxCell>
        <mxCell id="kf2svgYHk70GY_-qb0b_-1" value="Cliente" style="shape=umlActor;verticalLabelPosition=bottom;verticalAlign=top;html=1;" vertex="1" parent="1">
          <mxGeometry x="70" y="10" width="30" height="60" as="geometry" />
        </mxCell>
        <mxCell id="kf2svgYHk70GY_-qb0b_-43" style="edgeStyle=orthogonalEdgeStyle;rounded=0;orthogonalLoop=1;jettySize=auto;html=1;entryX=0;entryY=0.5;entryDx=0;entryDy=0;" edge="1" parent="1" source="kf2svgYHk70GY_-qb0b_-2" target="kf2svgYHk70GY_-qb0b_-7">
          <mxGeometry relative="1" as="geometry" />
        </mxCell>
        <mxCell id="kf2svgYHk70GY_-qb0b_-44" style="edgeStyle=orthogonalEdgeStyle;rounded=0;orthogonalLoop=1;jettySize=auto;html=1;entryX=0;entryY=0.5;entryDx=0;entryDy=0;" edge="1" parent="1" source="kf2svgYHk70GY_-qb0b_-2" target="kf2svgYHk70GY_-qb0b_-8">
          <mxGeometry relative="1" as="geometry" />
        </mxCell>
        <mxCell id="kf2svgYHk70GY_-qb0b_-45" style="edgeStyle=orthogonalEdgeStyle;rounded=0;orthogonalLoop=1;jettySize=auto;html=1;entryX=0;entryY=0.5;entryDx=0;entryDy=0;" edge="1" parent="1" source="kf2svgYHk70GY_-qb0b_-2" target="kf2svgYHk70GY_-qb0b_-39">
          <mxGeometry relative="1" as="geometry" />
        </mxCell>
        <mxCell id="kf2svgYHk70GY_-qb0b_-46" style="edgeStyle=orthogonalEdgeStyle;rounded=0;orthogonalLoop=1;jettySize=auto;html=1;entryX=0;entryY=0.5;entryDx=0;entryDy=0;" edge="1" parent="1" source="kf2svgYHk70GY_-qb0b_-2" target="kf2svgYHk70GY_-qb0b_-40">
          <mxGeometry relative="1" as="geometry" />
        </mxCell>
        <mxCell id="kf2svgYHk70GY_-qb0b_-2" value="Due침o" style="shape=umlActor;verticalLabelPosition=bottom;verticalAlign=top;html=1;" vertex="1" parent="1">
          <mxGeometry x="70" y="220" width="30" height="60" as="geometry" />
        </mxCell>
        <mxCell id="kf2svgYHk70GY_-qb0b_-31" style="edgeStyle=orthogonalEdgeStyle;rounded=0;orthogonalLoop=1;jettySize=auto;html=1;entryX=0;entryY=0.5;entryDx=0;entryDy=0;endArrow=classic;endFill=1;startArrow=none;startFill=0;" edge="1" parent="1" source="kf2svgYHk70GY_-qb0b_-3" target="kf2svgYHk70GY_-qb0b_-27">
          <mxGeometry relative="1" as="geometry" />
        </mxCell>
        <mxCell id="kf2svgYHk70GY_-qb0b_-3" value="Buscar autos" style="ellipse;whiteSpace=wrap;html=1;align=center;" vertex="1" parent="1">
          <mxGeometry x="160" y="-50" width="100" height="40" as="geometry" />
        </mxCell>
        <mxCell id="kf2svgYHk70GY_-qb0b_-29" style="edgeStyle=orthogonalEdgeStyle;rounded=0;orthogonalLoop=1;jettySize=auto;html=1;entryX=1;entryY=0.5;entryDx=0;entryDy=0;endArrow=none;endFill=0;startArrow=classic;startFill=1;" edge="1" parent="1" source="kf2svgYHk70GY_-qb0b_-4" target="kf2svgYHk70GY_-qb0b_-27">
          <mxGeometry relative="1" as="geometry" />
        </mxCell>
        <mxCell id="kf2svgYHk70GY_-qb0b_-30" style="edgeStyle=orthogonalEdgeStyle;rounded=0;orthogonalLoop=1;jettySize=auto;html=1;entryX=0;entryY=0.5;entryDx=0;entryDy=0;endArrow=classic;endFill=1;" edge="1" parent="1" source="kf2svgYHk70GY_-qb0b_-4" target="kf2svgYHk70GY_-qb0b_-13">
          <mxGeometry relative="1" as="geometry" />
        </mxCell>
        <mxCell id="kf2svgYHk70GY_-qb0b_-4" value="Crear solicitud reserva" style="ellipse;whiteSpace=wrap;html=1;align=center;" vertex="1" parent="1">
          <mxGeometry x="414" y="-50" width="100" height="40" as="geometry" />
        </mxCell>
        <mxCell id="kf2svgYHk70GY_-qb0b_-5" value="Cancelar reserva" style="ellipse;whiteSpace=wrap;html=1;align=center;" vertex="1" parent="1">
          <mxGeometry x="160" y="20" width="100" height="40" as="geometry" />
        </mxCell>
        <mxCell id="kf2svgYHk70GY_-qb0b_-6" value="Ver detalles" style="ellipse;whiteSpace=wrap;html=1;align=center;" vertex="1" parent="1">
          <mxGeometry x="160" y="80" width="100" height="40" as="geometry" />
        </mxCell>
        <mxCell id="kf2svgYHk70GY_-qb0b_-7" value="Registrar auto" style="ellipse;whiteSpace=wrap;html=1;align=center;" vertex="1" parent="1">
          <mxGeometry x="160" y="230" width="100" height="40" as="geometry" />
        </mxCell>
        <mxCell id="kf2svgYHk70GY_-qb0b_-8" value="Editar auto" style="ellipse;whiteSpace=wrap;html=1;align=center;" vertex="1" parent="1">
          <mxGeometry x="160" y="290" width="100" height="40" as="geometry" />
        </mxCell>
        <mxCell id="kf2svgYHk70GY_-qb0b_-10" value="Enviar notificaci칩n" style="ellipse;whiteSpace=wrap;html=1;align=center;" vertex="1" parent="1">
          <mxGeometry x="550" y="70" width="100" height="40" as="geometry" />
        </mxCell>
        <mxCell id="kf2svgYHk70GY_-qb0b_-11" value="Enviar notificaci칩n" style="ellipse;whiteSpace=wrap;html=1;align=center;" vertex="1" parent="1">
          <mxGeometry x="313" y="415" width="100" height="50" as="geometry" />
        </mxCell>
        <mxCell id="kf2svgYHk70GY_-qb0b_-33" style="edgeStyle=orthogonalEdgeStyle;rounded=0;orthogonalLoop=1;jettySize=auto;html=1;exitX=0.5;exitY=1;exitDx=0;exitDy=0;entryX=0.5;entryY=0;entryDx=0;entryDy=0;" edge="1" parent="1" source="kf2svgYHk70GY_-qb0b_-13" target="kf2svgYHk70GY_-qb0b_-32">
          <mxGeometry relative="1" as="geometry" />
        </mxCell>
        <mxCell id="kf2svgYHk70GY_-qb0b_-13" value="Iniciar pago" style="ellipse;whiteSpace=wrap;html=1;align=center;" vertex="1" parent="1">
          <mxGeometry x="550" y="-50" width="100" height="40" as="geometry" />
        </mxCell>
        <mxCell id="kf2svgYHk70GY_-qb0b_-27" value="Seleccionar auto (Activar hold)" style="ellipse;whiteSpace=wrap;html=1;align=center;" vertex="1" parent="1">
          <mxGeometry x="280" y="-60" width="100" height="60" as="geometry" />
        </mxCell>
        <mxCell id="kf2svgYHk70GY_-qb0b_-34" style="edgeStyle=orthogonalEdgeStyle;rounded=0;orthogonalLoop=1;jettySize=auto;html=1;" edge="1" parent="1" source="kf2svgYHk70GY_-qb0b_-32" target="kf2svgYHk70GY_-qb0b_-10">
          <mxGeometry relative="1" as="geometry" />
        </mxCell>
        <mxCell id="kf2svgYHk70GY_-qb0b_-32" value="Procesar pago" style="ellipse;whiteSpace=wrap;html=1;align=center;" vertex="1" parent="1">
          <mxGeometry x="550" y="10" width="100" height="40" as="geometry" />
        </mxCell>
        <mxCell id="kf2svgYHk70GY_-qb0b_-36" style="edgeStyle=orthogonalEdgeStyle;rounded=0;orthogonalLoop=1;jettySize=auto;html=1;entryX=0;entryY=0.5;entryDx=0;entryDy=0;" edge="1" parent="1" source="kf2svgYHk70GY_-qb0b_-35" target="kf2svgYHk70GY_-qb0b_-32">
          <mxGeometry relative="1" as="geometry" />
        </mxCell>
        <mxCell id="kf2svgYHk70GY_-qb0b_-35" value="Sistema de pagos" style="html=1;whiteSpace=wrap;" vertex="1" parent="1">
          <mxGeometry x="340" y="65" width="90" height="50" as="geometry" />
        </mxCell>
        <mxCell id="kf2svgYHk70GY_-qb0b_-37" value="Sistema de notificaciones" style="html=1;whiteSpace=wrap;" vertex="1" parent="1">
          <mxGeometry x="340" y="130" width="90" height="50" as="geometry" />
        </mxCell>
        <mxCell id="kf2svgYHk70GY_-qb0b_-38" value="(Usado por multiples casos de uso)" style="text;align=center;fontStyle=0;verticalAlign=middle;spacingLeft=3;spacingRight=3;strokeColor=none;rotatable=0;points=[[0,0.5],[1,0.5]];portConstraint=eastwest;html=1;fontSize=10;" vertex="1" parent="1">
          <mxGeometry x="345" y="180" width="80" height="26" as="geometry" />
        </mxCell>
        <mxCell id="kf2svgYHk70GY_-qb0b_-39" value="Recibir notificaciones" style="ellipse;whiteSpace=wrap;html=1;align=center;" vertex="1" parent="1">
          <mxGeometry x="160" y="350" width="100" height="40" as="geometry" />
        </mxCell>
        <mxCell id="kf2svgYHk70GY_-qb0b_-51" style="edgeStyle=orthogonalEdgeStyle;rounded=0;orthogonalLoop=1;jettySize=auto;html=1;entryX=0;entryY=0.5;entryDx=0;entryDy=0;" edge="1" parent="1" source="kf2svgYHk70GY_-qb0b_-40" target="kf2svgYHk70GY_-qb0b_-11">
          <mxGeometry relative="1" as="geometry" />
        </mxCell>
        <mxCell id="kf2svgYHk70GY_-qb0b_-40" value="Aceptar / Rechazar reserva" style="ellipse;whiteSpace=wrap;html=1;align=center;" vertex="1" parent="1">
          <mxGeometry x="160" y="410" width="110" height="60" as="geometry" />
        </mxCell>
        <mxCell id="kf2svgYHk70GY_-qb0b_-52" value="Recibir notificaciones" style="ellipse;whiteSpace=wrap;html=1;align=center;" vertex="1" parent="1">
          <mxGeometry x="160" y="135" width="100" height="40" as="geometry" />
        </mxCell>
      </root>
    </mxGraphModel>
  </diagram>
</mxfile>
